<svg height="960" viewBox="0 0 960 960" width="960" xmlns="http://www.w3.org/2000/svg"><path d="m397.474993 3.40096724 385.917401 34.42176196c83.560857 7.4531803 147.607606 77.4668188 147.607606 161.3594098v551.486421c0 82.510673-62.014991 151.83876-144.015647 160.998643l-370.730353 41.412128-22.168274 2.953185c-7.796266 1.038433-15.648986 1.591703-23.512824 1.663316h-1.572902c-5.981824 0-11.934463-.277683-17.843689-.829558l-.222311-.022943-.313384.029856c-3.00335.249374-6.087398.160527-9.209366-.302059l-.721107-.113402-127.254275-21.169843c-2.150406-.357739-4.236336-.88275-6.245503-1.560278l-.056365-.019274-.745939-.177356c-83.169846-20.400823-143.1537438-94.716545-144.3692451-181.545474l-.0188159-2.689375v-52.541789c0-.313632 0-.627253.0110653-.940798l11.4941149-488.561115c.0916717-3.896535.3034539-7.78932.6350449-11.672811 7.6862057-90.018451 77.6422059-161.5073046 166.1207559-172.2070003l1.494019-.1702974 91.841-14.68898471.262547-.06801858c20.604406-5.22768969 42.050586-6.96790377 63.616446-5.04434477zm-155.665823 177.24991176c-.2761 3.093287-.449198 6.194906-.519005 9.299706l-11.621927 516.885951v61.280804c0 76.546666 61.4328 138.744933 137.684844 139.981244l2.315156.018756c6.18604 0 12.365279-.410004 18.497089-1.227317l22.444982-2.991704.210299-.025766 370.814082-41.45114c56.687992-6.33682 99.557671-54.265661 99.557671-111.306732v-551.502032c0-57.997122-44.275245-106.4002995-102.042708-111.5564986l-385.448244-34.4042792c-77.013691-6.874076-145.018163 49.9853168-151.892239 126.9990078zm60.237134-126.5877877-54.860282 8.7787707c-69.901193 7.4483938-126.990052 63.519347-133.190816 136.14076-.261646 3.064327-.428756 6.135984-.501091 9.2106l-11.494115 488.561115v52.541789c0 71.782003 50.545945 131.764141 118.003523 146.328551l-.003523.205479 71.427816 11.885066c-48.79279-27.40563-81.759578-79.651853-81.759578-139.597882v-61.597056l11.626981-517.019257c.079779-3.548344.277605-7.09305.593148-10.628236 4.840569-54.231306 36.204558-99.7180115 80.157937-124.8096997zm99.311556 634.9021667c35.51711 10.233796 52.725087 51.780854 39.639368 92.119259-13.015849 40.123019-51.450084 65.183171-86.67834 55.032604-35.517111-10.233797-52.725088-51.780854-39.639368-92.11926 13.015848-40.123019 51.450083-65.18317 86.67834-55.032603zm192.464294-16.01105c35.51711 10.233797 52.725087 51.780854 39.639368 92.119259-13.015849 40.12302-51.450084 65.183171-86.67834 55.032604-35.517111-10.233797-52.725088-51.780854-39.639368-92.119259 13.015848-40.12302 51.450083-65.183171 86.67834-55.032604zm-260.118592 77.215025c-9.834935 30.317444 2.413237 59.889513 26.152782 66.729756 24.028399 6.923473 52.212036-11.453014 62.116842-41.985843 9.834934-30.317444-2.413238-59.889513-26.152783-66.729757-24.028399-6.923473-52.212036 11.453014-62.116841 41.985844zm452.582886-90.557566c35.51711 10.233796 52.725087 51.780854 39.639368 92.119259-13.015849 40.123019-51.450084 65.183171-86.67834 55.032604-35.517111-10.233797-52.725088-51.780855-39.639369-92.11926 13.015849-40.123019 51.450084-65.183171 86.678341-55.032603zm-260.118592 74.546516c-9.834935 30.317444 2.413237 59.889513 26.152782 66.729757 24.028399 6.923473 52.212036-11.453014 62.116842-41.985844 9.834934-30.317444-2.413238-59.889513-26.152783-66.729757-24.028399-6.923472-52.212036 11.453015-62.116841 41.985844zm192.464294-13.342541c-9.834935 30.317444 2.413237 59.889513 26.152782 66.729756 24.028399 6.923473 52.212036-11.453014 62.116842-41.985843 9.834934-30.317444-2.413238-59.889514-26.152783-66.729757-24.028399-6.923473-52.212036 11.453014-62.116841 41.985844z"/></svg>
