<?xml version="1.0" encoding="UTF-8"?>
<svg width="960px" height="960px" viewBox="0 0 960 960" version="1.1" xmlns="http://www.w3.org/2000/svg" xmlns:xlink="http://www.w3.org/1999/xlink">
    <title>com.tado / drivers / tado_x_device_thermostat/assets/pair</title>
    <style type="text/css">
        #pair {
        animation: fillpulse 8s infinite;
        }
        @keyframes fillpulse {
        0%, 20%, 40%, 60%, 80%, 100% {
        fill: #FFFFFF;
        }
        10%, 30%, 50%, 70%, 90% {
        fill: #0074CC;
        }
        }
    </style>
    <g id="com.tado-/-drivers-/-tado_x_device_thermostat" stroke="none" stroke-width="1" fill="none" fill-rule="evenodd">
        <path d="M613,391 C627.911688,391 640,403.088312 640,418 C640,432.911688 627.911688,445 613,445 C598.088312,445 586,432.911688 586,418 C586,403.088312 598.088312,391 613,391 Z M613,401 C603.611159,401 596,408.611159 596,418 C596,427.388841 603.611159,435 613,435 C622.388841,435 630,427.388841 630,418 C630,408.611159 622.388841,401 613,401 Z" id="Oval" fill="#000000"></path>
        <circle id="Oval" fill="#000000" transform="translate(559.5, 555.5) scale(-1, -1) translate(-559.5, -555.5)" cx="559.5" cy="555.5" r="7.5"></circle>
        <path d="M758,38 C848.574699,38 922,111.425301 922,202 L922,759 C922,849.574699 848.574699,923 758,923 L201,923 C110.425301,923 37,849.574699 37,759 L37,202 C37,111.425301 110.425301,38 201,38 L758,38 Z M758,58 L201,58 C121.470996,58 57,122.470996 57,202 L57,759 C57,838.529004 121.470996,903 201,903 L758,903 C837.529004,903 902,838.529004 902,759 L902,202 C902,122.470996 837.529004,58 758,58 Z" id="Rectangle" fill="#000000" fill-rule="nonzero"></path>
        <path d="M480,677 C521.421356,677 555,710.578644 555,752 C555,793.421356 521.421356,827 480,827 C438.578644,827 405,793.421356 405,752 C405,710.578644 438.578644,677 480,677 Z M480,687 C444.101491,687 415,716.101491 415,752 C415,787.898509 444.101491,817 480,817 C515.898509,817 545,787.898509 545,752 C545,716.101491 515.898509,687 480,687 Z" id="Oval" fill="#000000" fill-rule="nonzero"></path>
        <path d="M747,677 C788.421356,677 822,710.578644 822,752 C822,793.421356 788.421356,827 747,827 C705.578644,827 672,793.421356 672,752 C672,710.578644 705.578644,677 747,677 Z M747,687 C711.101491,687 682,716.101491 682,752 C682,787.898509 711.101491,817 747,817 C782.898509,817 812,787.898509 812,752 C812,716.101491 782.898509,687 747,687 Z" id="Oval" fill="#000000" fill-rule="nonzero"></path>
        <path d="M213,677 C254.421356,677 288,710.578644 288,752 C288,793.421356 254.421356,827 213,827 C171.578644,827 138,793.421356 138,752 C138,710.578644 171.578644,677 213,677 Z M213,687 C177.101491,687 148,716.101491 148,752 C148,787.898509 177.101491,817 213,817 C248.898509,817 278,787.898509 278,752 C278,716.101491 248.898509,687 213,687 Z" id="Oval" fill="#000000" fill-rule="nonzero"></path>
        <path d="M602.808052,352.461636 L602.808052,372.433007 L612.808052,372.433007 L612.808052,352.461636 L602.808052,352.461636 Z M619.500103,342.467938 L629.499897,342.532062 L629.307949,372.465069 L619.308155,372.400944 L619.500103,342.467938 Z M645.499851,332.461393 L645.807903,372.356035 L635.808201,372.433249 L635.500149,332.538607 L645.499851,332.461393 Z M596.345385,321.986173 C597.321695,321.009863 598.904608,321.009863 599.880919,321.986173 L606.113152,328.21894 L612.345385,321.986173 C613.321695,321.009863 614.904608,321.009863 615.880919,321.986173 C616.857229,322.962484 616.857229,324.545396 615.880919,325.521707 L609.648152,331.75394 L615.880919,337.986173 C616.814781,338.920036 616.855384,340.408899 616.002727,341.391022 L615.880919,341.521707 C614.904608,342.498018 613.321695,342.498018 612.345385,341.521707 L606.113152,335.28894 L599.880919,341.521707 C598.904608,342.498018 597.321695,342.498018 596.345385,341.521707 C595.369074,340.545396 595.369074,338.962484 596.345385,337.986173 L602.578152,331.75394 L596.345385,325.521707 C595.411522,324.587845 595.37092,323.098982 596.223577,322.116859 Z" id="pair" fill="#0074CC"></path>
        <path d="M392.193466,389.041136 C403.239161,389.041136 412.193466,397.995441 412.193466,409.041136 L412.193466,465.870934 C412.193466,476.916629 403.239161,485.870934 392.193466,485.870934 L331.280024,485.870934 L331.280024,542.700732 L402.193466,542.700732 C407.716314,542.700732 412.193466,544.050304 412.193466,549.573151 C412.193466,555.095999 401.866471,562.700732 396.343624,562.700732 L331.280024,562.700732 C320.234329,562.700732 311.280024,553.746427 311.280024,542.700732 L311.280024,485.870934 C311.280024,474.825239 320.234329,465.870934 331.280024,465.870934 L392.193466,465.870934 L392.193466,409.041136 L321.280024,409.041136 C315.757176,409.041136 311.280024,408.511921 311.280024,402.989074 C311.280024,397.466226 321.878624,389.041136 327.401471,389.041136 L392.193466,389.041136 Z" id="Path-627" fill="#000000"></path>
        <path d="M514,389 C525.045695,389 534,397.954305 534,409 L534,543 C534,554.045695 525.045695,563 514,563 L454,563 C442.954305,563 434,554.045695 434,543 L434,409 C434,397.954305 442.954305,389 454,389 L514,389 Z M514,409 L454,409 L454,543 L514,543 L514,409 Z" id="Rectangle" fill="#000000"></path>
        <path d="M631,467 C637.075132,467 642,471.924868 642,478 L642,552 C642,558.075132 637.075132,563 631,563 L596,563 C589.924868,563 585,558.075132 585,552 L585,478 C585,471.924868 589.924868,467 596,467 L631,467 Z M631,477 L596,477 C595.447715,477 595,477.447715 595,478 L595,552 C595,552.552285 595.447715,553 596,553 L631,553 C631.552285,553 632,552.552285 632,552 L632,478 C632,477.447715 631.552285,477 631,477 Z" id="Rectangle" fill="#000000"></path>
    </g>
</svg>
