<svg height="960" viewBox="0 0 960 960" width="960" xmlns="http://www.w3.org/2000/svg"><path d="m308.95427 76c37.046259 0 73.220237 6.8122674 107.161886 19.9233121l.837844.3266879.16369.0330023c3.404725.7343958 6.756055 1.9248429 9.966536 3.5886139l.505735.2666368 5.568039 2.986747.446413.203052c10.865197 5.014439 21.423049 10.679559 31.621907 16.961415l.43568.269533 146.799 78.773 234.725319-6.94638.179769-.004916.91182-.022887c.363371-.00912.72685-.013287 1.090336-.0125 11.976169.025951 23.197515 3.775714 33.113472 10.322624 7.735193 5.107082 14.498443 11.774667 20.575005 19.776723 9.788233 12.889853 18.110654 29.727782 25.191943 49.941698 13.232799 37.77373 22.065104 87.443329 24.837377 140.357759 2.800819 53.459289-.896362 104.265036-10.317682 143.372655-5.064164 21.021197-11.760249 38.70878-20.415886 52.517165-5.434789 8.670147-11.75066 16.017394-19.276752 21.805255-9.640637 7.41403-20.917384 11.941431-33.269988 12.588724l-110.395733 5.56408-1.135391 2.237343c-66.52366 128.842771-208.713746 200.528117-349.310702 170.266306l-4.534737-1.011605c-42.803592-9.885036-82.351093-28.549333-116.806778-54.713604l-.539392-.41244-.143704-.092666c-.972506-.644284-1.925732-1.336669-2.856717-2.07761l-.555898-.450396-165.709274-136.666633c-.986766-.813823-1.929173-1.670418-2.825393-2.565993l-.143014-.144702-1.349659-1.15444c-66.9461183-57.766638-106.6829174-142.374141-107.48690183-233.583436l-.01243917-2.822989c0-170.662554 135.417571-309.399135 302.95427-309.399135zm-99.854778 361.688558c-26.547451 114.989645 16.683893 229.132863 101.274274 294.727493 29.703636 22.868142 64.46124 39.780729 103.056081 48.693799 133.202296 30.761658 267.081043-44.161947 319.808431-171.248312l.497412-.020573c6.249945-15.135972 11.350803-31.009211 15.164818-47.529523 35.904504-155.519491-55.827719-309.490732-204.889653-343.904391-149.061935-34.413659-299.006859 63.762016-334.911363 219.281507zm337.349964-190.85818c138.214964 31.909438 223.044907 174.134411 189.976466 317.369567-33.068442 143.235157-171.660414 233.879116-309.875378 201.969677-138.214964-31.909438-223.044907-174.134411-189.976466-317.369567 33.068442-143.235157 171.660414-233.879116 309.875378-201.969677zm-290.387976 206.468698c-30.62443 132.648977 47.720405 264.001086 174.988085 293.383145 127.267681 29.382059 255.264526-54.332319 285.888955-186.981297 30.62443-132.648977-47.720405-264.001086-174.988085-293.383145-127.267681-29.382059-255.264526 54.332319-285.888955 186.981297zm52.89279-337.299076c-145.225633 0-262.95427 120.614101-262.95427 269.399135 0 84.440146 37.9194098 159.806669 97.264152 209.201233l.003751.211418 78.319565 64.603446c-37.066555-65.498646-50.562777-145.714821-31.975377-226.225695 35.820964-155.157643 178.260001-257.096431 327.297704-239.745078l-71.266719-38.23222c-9.700757-6.059252-19.814578-11.492959-30.288067-16.246414l-6.669453-3.576707-.40528.492503c-30.645671-12.817669-64.180636-19.881621-99.326006-19.881621zm540.327301 116.345224-.911819.022886-102.545609 3.033472c6.715172 10.399694 12.807646 24.127651 18.30045 40.675931 12.489834 37.628369 21.130302 88.560793 23.990966 143.145518 4.25977 81.281254-5.020848 153.643816-23.935004 189.081006l103.611322-5.22539c30.408831-1.593659 50.712221-85.872843 45.348949-188.241732-5.309639-101.345199-33.784628-182.426525-63.859255-182.491691zm-128.652276 3.802651-79.336648 2.3447c63.838755 41.854997 109.071824 107.915504 126.932998 183.330201l-.082676-1.553026c-2.772424-52.900986-11.117771-102.09378-23.000041-137.891729-5.664187-17.06461-11.941404-30.446809-18.302492-39.200175-2.202555-3.030891-4.285814-5.351563-6.211141-7.029971z"/></svg>
