<?xml version="1.0" encoding="UTF-8"?>
<svg width="960px" height="960px" viewBox="0 0 960 960" version="1.1" xmlns="http://www.w3.org/2000/svg" xmlns:xlink="http://www.w3.org/1999/xlink">
    <title>com.tado / drivers / tado_x_thermostat_knob/assets/pair</title>
    <style type="text/css">
        #pair {
        animation: fillpulse 8s infinite;
        }
        @keyframes fillpulse {
        0%, 20%, 40%, 60%, 80%, 100% {
        fill: #FFFFFF;
        }
        10%, 30%, 50%, 70%, 90% {
        fill: #0074CC;
        }
        }
    </style>
    <g id="com.tado-/-drivers-/-tado_x_thermostat_knob" stroke="none" stroke-width="1" fill="none" fill-rule="evenodd">
        <path d="M698.5,398 C710.926407,398 721,408.073593 721,420.5 C721,432.926407 710.926407,443 698.5,443 C686.073593,443 676,432.926407 676,420.5 C676,408.073593 686.073593,398 698.5,398 Z M698,406 C690.268014,406 684,412.268014 684,420 C684,427.731986 690.268014,434 698,434 C705.731986,434 712,427.731986 712,420 C712,412.268014 705.731986,406 698,406 Z" id="Oval" fill="#000000"></path>
        <circle id="Oval" fill="#000000" transform="translate(653.6628, 534.7641) scale(-1, -1) translate(-653.6628, -534.7641)" cx="653.662768" cy="534.764118" r="6.2358824"></circle>
        <path d="M596,362 L596,379 L604,379 L604,362 L596,362 Z M610.15067,354 L618,354.053442 L617.84933,379 L610,378.946558 L610.15067,354 Z M631.731031,345 L632,377.936254 L623.268969,378 L623,345.063746 L631.731031,345 Z M590.59276,336.59276 C591.383107,335.802413 592.664512,335.802413 593.454859,336.59276 L598.5,341.638 L603.545141,336.59276 C604.335488,335.802413 605.616893,335.802413 606.40724,336.59276 C607.197587,337.383107 607.197587,338.664512 606.40724,339.454859 L601.362,344.5 L606.40724,349.545141 C607.155989,350.293891 607.195397,351.483369 606.525464,352.278511 L606.40724,352.40724 C605.616893,353.197587 604.335488,353.197587 603.545141,352.40724 L598.5,347.362 L593.454859,352.40724 C592.664512,353.197587 591.383107,353.197587 590.59276,352.40724 C589.802413,351.616893 589.802413,350.335488 590.59276,349.545141 L595.638,344.5 L590.59276,339.454859 C589.844011,338.706109 589.804603,337.516631 590.474536,336.721489 Z" id="pair" fill="#0074CC"></path>
        <path d="M514.352069,397 C523.546468,397 531,404.424985 531,413.584168 L531,460.707916 C531,469.867099 523.546468,477.292084 514.352069,477.292084 L463.647931,477.292084 L463.647931,524.415832 L522.676035,524.415832 C527.273234,524.415832 531,525.534907 531,530.114499 C531,534.694091 522.403845,541 517.806646,541 L463.647931,541 C454.453532,541 447,533.575015 447,524.415832 L447,477.292084 C447,468.132901 454.453532,460.707916 463.647931,460.707916 L514.352069,460.707916 L514.352069,413.584168 L455.323965,413.584168 C450.726766,413.584168 447,413.145339 447,408.565747 C447,403.986156 455.822238,397 460.419437,397 L514.352069,397 Z" id="Path-627" fill="#000000"></path>
        <path d="M615.4,396 C624.567927,396 632,403.461921 632,412.666667 L632,524.333333 C632,533.538079 624.567927,541 615.4,541 L565.6,541 C556.432073,541 549,533.538079 549,524.333333 L549,412.666667 C549,403.461921 556.432073,396 565.6,396 L615.4,396 Z M616,413 L566,413 L566,524 L616,524 L616,413 Z" id="Rectangle" fill="#000000"></path>
        <path d="M712.929825,461 C717.939144,461 722,465.104056 722,470.166667 L722,531.833333 C722,536.895944 717.939144,541 712.929825,541 L684.070175,541 C679.060856,541 675,536.895944 675,531.833333 L675,470.166667 C675,465.104056 679.060856,461 684.070175,461 L712.929825,461 Z M713.162162,470 L683.837838,470 C683.375113,470 683,470.371132 683,470.828947 L683,532.171053 C683,532.628868 683.375113,533 683.837838,533 L713.162162,533 C713.624887,533 714,532.628868 714,532.171053 L714,470.828947 C714,470.371132 713.624887,470 713.162162,470 Z" id="Rectangle" fill="#000000"></path>
        <path d="M587,163 C762.074266,163 904,304.925734 904,480 C904,655.074266 762.074266,797 587,797 C497.844821,797 414.648182,759.960674 355.207199,696.246515 L354.06,695.006 L248,695 C242.780909,695 237.828627,693.857655 233.379549,691.809358 L233,691.631 L232.620451,691.809358 C228.336153,693.781792 223.585236,694.914139 218.578789,694.995311 L218,695 L92,695 C72.6700338,695 57,679.329966 57,660 L57,297 C57,277.670034 72.6700338,262 92,262 L218,262 C223.219091,262 228.171373,263.142345 232.620451,265.190642 L232.999,265.368 L233.379216,265.190642 C237.663395,263.218208 242.414151,262.085861 247.42038,262.004689 L247.999144,262 L356.864,261.994 L358.018636,260.779742 C416.685117,199.49315 497.576814,163.749664 584.260708,163.011658 L587,163 Z M587,224 C728.384896,224 843,338.615104 843,480 C843,621.384896 728.384896,736 587,736 C445.615104,736 331,621.384896 331,480 C331,338.615104 445.615104,224 587,224 Z M587,234 C451.137952,234 341,344.137952 341,480 C341,615.862048 451.137952,726 587,726 C722.862048,726 833,615.862048 833,480 C833,344.137952 722.862048,234 587,234 Z M352.383406,281.989537 L248,282 C244.156268,282 240.650208,283.445742 237.99594,285.823103 C238.002677,285.982801 238.000578,286.143897 237.990607,286.306329 C233.996865,351.371054 232,416.435563 232,481.5 C232,544.614787 233.878986,607.729642 237.63697,670.844696 C240.330026,673.418911 243.980372,675 248,675 L349.881467,675.0107 C306.219463,621.982299 280,554.053092 280,480 C280,404.543033 307.223008,335.444339 352.383406,281.989537 Z M218,282 L92,282 C83.7157288,282 77,288.715729 77,297 L77,660 C77,668.284271 83.7157288,675 92,675 L218,675 C221.678749,675 225.048193,673.675705 227.65761,671.477834 C223.885667,608.152378 222,544.826223 222,481.5 C222,416.27377 224.000517,351.047613 228.001538,285.821671 C225.348029,283.445015 221.842765,282 218,282 Z M418.948186,235.083435 L418.416,235.451 L418.822,235.171 L415.729,237.328 L415.375,237.578 L414.995,237.848 L412.009,240.002 L411.798,240.155 L411.677,240.244 L411.172,240.615 L408.232,242.806 L407.95,243.019 L407.522,243.344 L404.546,245.634 L404.462,245.699 L404.47311,245.690571 L404.046844,246.023728 L404.384,245.76 L403.895,246.143 L400.919,248.507 L400.763,248.633 L400.334,248.98 L397.251421,251.507029 L396.786,251.896 L393.989,254.259 L393.865,254.364 L393.927275,254.311763 L393.857,254.371 L393.793,254.426 L393.451,254.721 L390.509,257.283 L390.68,257.133 L390.5,257.291 L390.442494,257.342758 L390.379,257.398 L389.954,257.777 L387.247,260.208 L386.929,260.496 L386.569,260.826 L384.024,263.182 L384.188,263.028 L383.790762,263.399992 L383.965,263.237 L383.29002,263.871048 L383.286,263.875 L380.526,266.511 L380.16,266.865 L380.06,266.962 L379.973,267.047 L377.216,269.763 L376.966,270.013 L377.129281,269.849383 L376.9,270.078 L376.951,270.028 L376.635,270.345 L373.948,273.075 L373.777,273.251 L372.287722,274.797857 C370.711361,276.44681 369.153804,278.113892 367.615398,279.798758 C367.579073,279.838541 367.542778,279.878313 367.506494,279.918094 L367.615398,279.798758 C319.404402,332.599533 290,402.865883 290,480 C290,556.219117 318.710923,625.732438 365.907653,678.314846 L367.343504,679.90306 L367.761,680.36 L370.253,683.051 L370.619,683.441 L370.377605,683.185383 L370.637,683.461 L370.639,683.463 L370.751,683.582 L370.934,683.775 L373.544,686.507 L373.64,686.606 L373.608,686.574 L373.79,686.761 L374.143,687.124 L376.73,689.749 L375.856,688.87 L376.895015,689.916401 L376.737,689.756 L377.017,690.037 L377.255,690.275 L377.561,690.579 L377.293,690.312 L380.15,693.124 L380.153,693.127 L380.238,693.21 L380.1882,693.161922 L380.528,693.489 L380.419,693.385 L381.421755,694.352106 L381.651,694.571 L380.588,693.546 L383.33,696.166 L383.386425,696.219811 L383.415,696.246 L383.537,696.361 L383.663,696.479 L386.574,699.177 L386.827,699.41 L386.706157,699.300016 L386.865,699.445 L386.882,699.46 L387.105,699.662 L389.887,702.165 L390.187,702.43 L390.696,702.879 L393.299,705.147 L393.792,705.572 L393.974652,705.728797 L393.828,705.602 L394.06,705.801 L396.938,708.231 L397.201,708.451 L397.59,708.773 L400.568,711.209 L400.733,711.343 L402.43716,712.70689 C404.186483,714.096163 405.951831,715.466127 407.732882,716.81646 L407.88681,716.933084 L407.93,716.966 L407.797,716.865 L408.232,717.192 L411.156,719.372 L411.502,719.626 L411.628,719.719 L412.027,720.01 L414.943,722.112 L414.761,721.983 L415.042026,722.184884 L414.945,722.114 L415.305,722.37 L415.719,722.663 L418.776,724.798 L418.82,724.828 L419.338,725.184 L419.055,724.989 L419.613,725.371 L422.511,727.326 L422.976,727.636 L423.157,727.756 L426.497,729.937 L425.009,728.974 L425.29789,729.162845 L426.518,729.951 L426.629,730.023 L426.861,730.17 L430.174,732.266 L430.525,732.485 L430.552,732.502 L430.785,732.646 L430.674952,732.578208 L430.971,732.761 L430.79,732.649 L433.996,734.607 L434.444,734.876 L434.285,734.781 L434.740226,735.054737 L434.469,734.891 L434.857,735.123 L438.011,736.982 L438.421,737.22 L438.809,737.444 L442.163,739.349 L442.384,739.474 L442.248085,739.398631 L442.402,739.484 L442.413,739.49 L442.824,739.718 L446.37804,741.665314 L446.443,741.7 L446.778,741.879 L450.365759,743.773855 L450.754,743.974 L454.215,745.735 L454.553,745.904 L454.894,746.073 L458.229,747.706 L458.759,747.962 L459.147,748.148 L462.545,749.744 L462.914,749.915 L463.358,750.119 L466.745,751.645 L467.299,751.891 L467.632,752.037 L471.137,753.55 L471.522,753.713 L471.815,753.837 L475.494,755.357 L475.652,755.421 L475.581593,755.393605 L475.675,755.431 L475.749,755.461 L475.817,755.488 L479.545,756.964 L479.99,757.137 L480.201,757.218 L483.813,758.583 L484.462,758.823 L484.009648,758.657354 L484.572201,758.864695 L484.621,758.882 L488.19,760.166 L488.716,760.351 L489.228,760.53 L492.963507,761.804921 L493.587,762.01 L497.388,763.241 L497.56,763.295 L497.463887,763.265925 L497.818462,763.37765 L497.569,763.298 L499.616906,763.936772 C501.054586,764.378701 502.496915,764.810011 503.943802,765.23061 L506.117541,765.853464 L506.967,766.09 L510.453,767.041 L511.345412,767.277997 L512.215865,767.505192 L512.681,767.624 L512.891782,767.679656 L513.289,767.78 L513.745105,767.897477 L514.004,767.962 L514.441405,768.073206 L515.004,768.213 L515.277505,768.281836 L515.176,768.255 L515.54,768.345 L516.179,768.502 L519.815,769.368 L520.27,769.473 L520.673,769.565 L524.514,770.414 L524.892,770.494 L526.963771,770.929048 C529.268886,771.40224 531.583743,771.848725 533.908002,772.268165 L534.313,772.34 L538.338,773.032 L538.794,773.107 L538.521338,773.06307 L539.035659,773.147045 L538.824,773.112 L539.192,773.171 L542.964,773.756 L543.549,773.843 L544.111,773.924 L547.818,774.437 L548.413,774.515 L548.865,774.573 L552.68,775.037 L553.144,775.09 L555.238063,775.321592 C557.601791,775.572889 559.973801,775.796458 562.353762,775.991966 L563.009,776.043 L567.002,776.336 L567.297,776.356 L567.952,776.397 L571.806,776.617 L572.201,776.636 L572.941,776.671 L576.759,776.825 L577.252,776.842 L577.807,776.859 L581.669,776.952 L582.474902,776.966228 L587,777 C751.028571,777 884,644.028571 884,480 C884,317.611715 753.674702,185.662534 591.911438,183.03979 L587,183 L582.370945,183.035343 L581.964133,183.041833 L580.293905,183.074217 L579.98,183.082 L579.770012,183.086278 L579.465,183.094 L578.625941,183.115781 L577.899,183.137 L577.579675,183.146563 L577.735,183.142 L577.271,183.156 L576.794,183.173 L572.827,183.333 L572.25,183.36 L571.955,183.375 L568.063,183.595 L567.385,183.637 L566.883,183.671 L563.094,183.949 L562.481,183.998 L562.173,184.023 L558.173,184.382 L557.672,184.43 L557.466,184.45 L553.198,184.902 L553.337,184.887 L553.192,184.903 L553.147256,184.90816 L553.064,184.917 L552.557,184.976 L548.587,185.462 L548.347,185.492 L548.31,185.497 L548.123,185.522 L544.036,186.085 L543.675,186.138 L543.186,186.21 L539.347,186.803 L538.775,186.895 L538.467,186.946 L534.583,187.611 L534.134,187.691 L533.657,187.778 L529.895,188.485 L529.234,188.614 L529.145,188.632 L525.166,189.446 L524.879,189.507 L524.194,189.654 L520.379,190.501 L520.193,190.544 L519.848,190.624 L515.754099,191.600402 L515.448,191.676 L511.6,192.656 L511.054,192.798 L510.818,192.861 L507.104,193.87 L506.609,194.008 L506.117,194.147 L502.537,195.183 L501.927,195.364 L501.696,195.433 L498.098,196.535 L497.373,196.763 L497.109,196.847 L493.472,198.026 L492.993,198.185 L492.813,198.245 L488.974,199.558 L488.697,199.655 L486.683465,200.368708 C485.238237,200.887244 483.798196,201.416666 482.36344,201.956875 L480.215282,202.775266 L480.055045,202.837082 L479.821,202.928 L476.069,204.41 L475.926,204.467 L475.823,204.509 L475.294,204.724 L471.943,206.109 L471.403,206.336 L470.999,206.507 L467.613,207.971 L467.07,208.209 L466.73,208.36 L463.35,209.884 L462.878,210.101 L462.482,210.284 L459.027,211.909 L458.769,212.032 L456.845206,212.963145 C455.464232,213.637497 454.089264,214.322247 452.720405,215.017291 L450.671709,216.067566 L450.453444,216.18065 L450.562,216.124 L450.356,216.231 L446.835,218.089 L446.514,218.262 L446.179,218.443 L442.848,220.267 L442.628,220.389 L441.982,220.751 L438.87,222.52 L438.091,222.971 L434.832,224.891 L434.425,225.134 L434.049,225.361 L430.791,227.35 L430.59,227.475 L430.151,227.748 L426.824,229.852 L426.655,229.959 L424.84567,231.131823 C422.981281,232.349079 421.131411,233.586719 419.296376,234.844427 C419.180301,234.923983 419.064214,235.003669 418.948186,235.083435 L419.123,234.963 L418.839,235.159 L418.948186,235.083435 Z" id="Combined-Shape" fill="#000000" fill-rule="nonzero"></path>
    </g>
</svg>
