<svg height="960" viewBox="0 0 960 960" width="960" xmlns="http://www.w3.org/2000/svg"><g fill="none" fill-rule="evenodd"><path d="m144.985261 165.67454c49.344102-39.544369 107.728974-59.063008 164.71254-52.586435l-1.492801-.163105 1.267707-.84967c93.341981 8.12436 166.187289 15.764512 218.537525 22.907025l1.580097.216287c45.207875 6.208451 105.940065 16.303567 182.196099 30.29384 10.5718 1.190619 21.10833 3.132367 31.567871 5.848842 1.478958.278148 2.963834.556606 4.454614.836172l24.416025 4.579502-1.228938 3.684002.944043.379248c62.972763 25.614049 111.014093 78.10622 138.505858 145.420858l.908773 2.249295c29.193885 73.045731 34.210391 163.243429 7.851327 253.535253l-1.584782 5.304844c-27.839514 91.106633-82.423191 164.485894-147.820078 209.73004-67.380507 46.616492-146.121642 63.46426-220.085356 40.851284-13.081477-3.999409-25.588094-9.105054-37.48198-15.21905l-348.186858-156.275066c-7.278779-2.744571-14.324725-5.913076-21.12738-9.479134l-1.823787-.827076c-50.1985823-27.068467-87.0936166-76.076334-105.4298902-136.383539-17.4295394-57.324996-18.0498081-124.840197 2.5371047-192.176954 20.7970742-68.024165 59.6384266-124.095385 106.7822665-161.876463z" stroke="#000" stroke-linejoin="round" stroke-width="40"/><path d="m555.563219 818.785727c136.562727 41.751415 290.090094-64.464872 342.912971-237.240719 52.822878-172.775847-15.061684-346.684554-151.624411-388.435969-136.562727-41.751416-290.090094 64.464872-342.912971 237.240718-52.822877 172.775847 15.061684 346.684554 151.624411 388.43597z" stroke="#000" stroke-linecap="round" stroke-linejoin="round" stroke-width="20"/><path d="m693.413914 251.55532 12.838467-.942339c5.240743-.384669 9.80104 3.551957 10.185709 8.7927.017012.231778.025527.464102.025527.696504 0 5.818139-4.396923 10.695308-10.183942 11.296265l-12.894426 1.339031c-5.325229.553002-10.090476-3.315652-10.643478-8.640881-.034545-.332648-.051851-.666861-.051851-1.001299 0-6.061875 4.678382-11.096235 10.723994-11.539981z" fill="#000"/></g></svg>